<svg x="0" y="0" width="249px" height="50px" overflow="inherit" viewBox="0, 0, 249, 50" preserveAspectRatio="xMidYMid" font-size="0" xml="http://www.w3.org/XML/1998/namespace" xmlns="http://www.w3.org/2000/svg" xmlns:xlink="http://www.w3.org/1999/xlink" xmlns:xml="http://www.w3.org/XML/1998/namespace" version="1.1"><title xml:space="default">Group</title><desc xml:space="default">Created with Sketch.</desc><defs xml:space="default"/><g id="Page-1" xml:space="default" fill-rule="evenodd" style="fill:none;"><g transform="translate(0, -25)" id="Artboard" xml:space="default"><g transform="translate(0, 25)" id="Group" xml:space="default"><path d="M43.5 34.625 C42.875 34.625 42.5 35 42.5 35.625 L42.5 41 L34.375 41 L34.375 35.625 C34.375 35 34 34.625 33.375 34.625 C32.75 34.625 32.375 35 32.375 35.625 L32.375 48.625 C32.375 49.25 32.75 49.625 33.375 49.625 C34 49.625 34.375 49.25 34.375 48.625 L34.375 42.875 L42.625 42.875 L42.625 48.625 C42.625 49.25 43 49.625 43.625 49.625 C44.25 49.625 44.625 49.25 44.625 48.625 L44.625 35.625 C44.5 35 44.125 34.625 43.5 34.625 z M53.625 42 L59.375 36.25 C59.625 36 59.75 35.75 59.75 35.5 C59.75 35 59.5 34.625 58.875 34.625 C58.625 34.625 58.375 34.75 58.125 35 L52.5 40.625 C52.25 40.875 51.875 41.125 51.375 41.125 L50.25 41.125 L50.25 35.75 C50.25 35.125 49.875 34.75 49.25 34.75 C48.625 34.75 48.25 35.125 48.25 35.75 L48.25 48.625 C48.25 49.25 48.625 49.625 49.25 49.625 C49.875 49.625 50.25 49.25 50.25 48.625 L50.25 42.875 L51.25 42.875 C51.75 42.875 52 43 52.375 43.375 L58.25 49.25 C58.5 49.5 58.75 49.625 59 49.625 C59.5 49.625 59.875 49.25 59.875 48.75 C59.875 48.375 59.75 48.25 59.5 47.875 L53.625 42 z M66 16.875 C65.125 17.375 63.875 17.625 62.75 17.625 C60.875 17.625 59.625 16.75 59.625 15.375 C59.625 14.125 60.625 13.125 62.75 13.125 C63.875 13.125 64.75 13.25 66 13.625 L66 16.875 z M63 4.875 C61.375 4.875 59.875 5.25 58.875 5.75 C58.125 6.125 57.75 6.5 57.75 7.125 C57.75 7.875 58.375 8.375 59 8.375 C59.375 8.375 59.75 8.25 60.125 8.125 C60.75 7.875 61.75 7.625 62.75 7.625 C65 7.625 66 8.5 66 10.25 L66 11.5 C64.625 11.125 63.625 11 62.375 11 C58.625 11 56.75 13.125 56.75 15.5 C56.75 18.25 58.75 20.25 62.375 20.25 C65.25 20.25 67.375 19.375 68.25 18.75 C68.625 18.5 68.75 18.25 68.75 17.625 L68.75 10.375 C68.75 6.625 66.625 4.875 63 4.875 z M98.75 14.5 C98.125 14.5 97.75 14.875 97.5 15.375 C97 16.5 95.875 17.25 94.375 17.25 C92.25 17.25 91 16 90.875 14.125 C90.75 13.125 90.75 12 90.875 11 C91 9.125 92.25 7.875 94.375 7.875 C95.875 7.875 97 8.625 97.5 9.75 C97.75 10.125 98.125 10.625 98.75 10.625 C99.625 10.625 100.25 10.125 100.25 9.25 C100.25 8.75 100.125 8.375 99.875 7.875 C99 6.25 97.125 4.875 94.375 4.875 C90.75 4.875 88.25 7.125 88 10.5 C87.875 11.625 87.875 13.375 88 14.5 C88.375 17.75 90.75 20.125 94.375 20.125 C97.125 20.125 99 18.875 99.875 17.25 C100.125 16.75 100.25 16.375 100.25 15.875 C100.25 15 99.625 14.5 98.75 14.5 z M32 17.5 L26.875 12.375 L31.75 7.5 C32.125 7.125 32.375 6.75 32.375 6.375 C32.375 5.625 31.875 5.125 31.125 5.125 C30.75 5.125 30.375 5.25 30 5.75 L25 10.75 C24.75 11 24.5 11.125 24 11.125 L23 11.125 L23 6.75 C23 5.75 22.375 5.125 21.5 5.125 C20.625 5.125 20 5.75 20 6.75 L20 18.625 C20 19.625 20.625 20.25 21.5 20.25 C22.375 20.25 23 19.625 23 18.625 L23 13.875 L23.875 13.875 C24.25 13.875 24.5 14 24.875 14.25 L30.125 19.5 C30.625 20 30.875 20.125 31.375 20.125 C32.125 20.125 32.75 19.625 32.75 18.75 C32.625 18.25 32.375 17.875 32 17.5 z M82.125 14.125 C82 16 80.75 17.25 78.625 17.25 C77.5 17.25 76.125 16.875 75.375 16.375 L75.375 8.625 C76 8.125 77.5 7.75 78.625 7.75 C80.75 7.75 82 9 82.125 10.875 C82.125 11.875 82.125 13.125 82.125 14.125 z M78.625 4.875 C76 4.875 74 5.75 73.125 6.25 C72.5 6.625 72.375 7 72.375 8.125 L72.375 23.25 C72.375 24.25 73 24.875 73.875 24.875 C74.75 24.875 75.375 24.25 75.375 23.25 L75.375 19.25 C76.25 19.625 77.625 20 78.875 20 C82.25 20 84.625 17.75 85 14.375 C85.125 13.25 85.125 11.375 85 10.25 C84.75 7.25 82.375 4.875 78.625 4.875 z M26.875 46.875 C25.75 47.5 24.25 47.875 22.875 47.875 C20.375 47.875 19 46.875 19 45 C19 43.375 20.25 42.125 22.875 42.125 C24.125 42.125 25.25 42.375 26.875 42.75 L26.875 46.875 z M23.375 34.5 C21.625 34.5 20 35 19.125 35.375 C18.5 35.625 18.25 35.875 18.25 36.375 C18.25 36.875 18.625 37.25 19.125 37.25 C19.375 37.25 19.625 37.125 19.875 37 C20.625 36.75 21.875 36.375 23.125 36.375 C25.625 36.375 26.875 37.375 26.875 39.75 L26.875 41.125 C25.25 40.625 24.125 40.5 22.75 40.5 C19 40.5 17.125 42.625 17.125 45 C17.125 47.875 19.25 49.75 22.625 49.75 C25.375 49.75 27.5 48.75 28.375 48.25 C28.75 48 28.75 47.875 28.75 47.375 L28.75 39.75 C28.75 36.125 26.75 34.5 23.375 34.5 z M9 47.5 L3.5 47.5 L3.5 39.625 L9 39.625 C11.875 39.625 13.125 41.125 13.125 43.625 C13.125 46.125 11.875 47.5 9 47.5 z M9.25 37.75 L3.5 37.75 L3.5 31.625 L13.125 31.625 C13.75 31.625 14.25 31.25 14.25 30.625 C14.25 30 13.75 29.625 13.125 29.625 L3.25 29.625 C2.125 29.625 1.5 30.25 1.5 31.375 L1.5 47.625 C1.5 48.75 2.125 49.375 3.25 49.375 L9.25 49.375 C13 49.375 15.125 47.25 15.125 43.375 C15.125 39.875 13 37.75 9.25 37.75 z M43.375 10.5 L48.25 10.5 C50.5 10.5 51.625 11.625 51.625 13.75 C51.625 15.75 50.625 17 48.25 17 L43.375 17 L43.375 10.5 z M42.625 19.875 L48.5 19.875 C52.375 19.875 54.625 17.625 54.625 13.625 C54.625 9.875 52.375 7.75 48.5 7.75 L43.375 7.75 L43.375 3 L52.125 3 C53.125 3 53.75 2.375 53.75 1.5 C53.75 0.625 53.125 0.125 52.125 0.125 L42.625 0.125 C41.125 0.125 40.25 1 40.25 2.5 L40.25 17.625 C40.375 19.125 41.125 19.875 42.625 19.875 z M5.75 11 L8.5 3.25 C8.625 3 8.75 2.875 8.875 2.875 C9.125 2.875 9.125 3 9.25 3.25 L12 11 C12 11 5.75 11 5.75 11 z M17.75 18.625 C17.75 18.375 17.75 18.125 17.5 17.625 L12 2.625 C11.375 0.75 10.375 0 8.875 0 C7.375 0 6.375 0.75 5.75 2.625 L0.25 17.625 C0.125 18.125 0 18.375 0 18.625 C0 19.375 0.625 20 1.5 20 C2.25 20 2.75 19.625 3 18.75 L4.75 13.625 L12.875 13.625 L14.625 18.75 C14.875 19.625 15.5 20 16.125 20 C17.125 20 17.75 19.375 17.75 18.625 z" id="Shape" xml:space="default" style="fill:#353535;"/><path d="M248.1924 23.5 C246.1924 18.375 241.0674 15.5 235.6924 16.5 L224.4424 18.5 C222.5674 18.875 221.3174 20.625 221.6924 22.5 C222.0674 24.375 223.8174 25.625 225.6924 25.25 L236.9424 23.25 C239.5674 22.75 241.3174 24.375 241.9424 26 C242.5674 27.625 242.4424 30 240.1924 31.375 L223.6924 42 C222.1924 43 220.3174 43 218.6924 42.25 C217.0674 41.375 216.1924 39.75 216.1924 38 L216.1924 3.375 C216.1924 1.5 214.6924 0 212.8174 0 C210.9424 0 209.4424 1.5 209.4424 3.375 L209.4424 38 C209.4424 42.375 211.6924 46.25 215.5674 48.25 C217.3174 49.25 219.3174 49.75 221.1924 49.75 C223.4424 49.75 225.5674 49.125 227.5674 47.875 L244.0674 37.25 C248.4424 34.125 250.1924 28.625 248.1924 23.5 M190.1924 16.5 L178.9424 18.5 C177.0674 18.875 175.8174 20.625 176.1924 22.5 C176.5674 24.375 178.3174 25.625 180.1924 25.25 L191.4424 23.25 C194.0674 22.75 195.8174 24.375 196.4424 26 C197.0674 27.625 196.9424 30 194.6924 31.375 L178.1924 42 C176.6924 43 174.8174 43 173.1924 42.25 C171.5674 41.375 170.6924 39.75 170.6924 38 L170.6924 11.75 C170.6924 7.375 168.4424 3.5 164.5674 1.5 C160.6924 -0.5 156.3174 -0.375 152.5674 2 L111.1924 28.75 C106.5674 31.75 104.8174 37.25 106.8174 42.375 C108.8174 47.5 113.9424 50.375 119.3174 49.375 L155.4424 42.875 C157.3174 42.5 158.5674 40.75 158.1924 38.875 C157.8174 37 156.0674 35.75 154.1924 36.125 L118.0674 42.625 C115.4424 43.125 113.6924 41.5 113.0674 39.875 C112.4424 38.25 112.5674 35.875 114.8174 34.5 L156.1924 7.625 C157.6924 6.625 159.5674 6.625 161.1924 7.375 C162.8174 8.25 163.6924 9.875 163.6924 11.625 L163.6924 37.875 C163.6924 42.25 165.9424 46.125 169.8174 48.125 C171.5674 49.125 173.5674 49.625 175.4424 49.625 C177.6924 49.625 179.8174 49 181.8174 47.75 L198.3174 37.125 C202.9424 34.125 204.6924 28.625 202.6924 23.5 C200.6924 18.375 195.6924 15.5 190.1924 16.5" id="Shape#1" xml:space="default" style="fill:#439846;"/></g></g></g></svg>