<?xml version="1.0" encoding="UTF-8"?>
<!-- Generator: Adobe Illustrator 24.0.1, SVG Export Plug-In . SVG Version: 6.00 Build 0)  -->
<svg version="1.1" id="Слой_1" xmlns="http://www.w3.org/2000/svg" xmlns:xlink="http://www.w3.org/1999/xlink" x="0px" y="0px" width="250px" height="49px" viewBox="0 0 250 49" style="enable-background:new 0 0 250 49;" xml:space="preserve">
<style type="text/css">
	.st0{fill:#E9041E;}
	.st1{fill:#FFFFFF;}
</style>
<g>
	<path class="st0" d="M204.7,22.4v6.1h-3.1v-3.5h-14.1v3.5h-3.2v-6.1h0.8c1.2,0,2-0.8,2.4-2.3c0.5-2.1,0.8-4.2,0.8-6.3l0.2-5.2H202   v13.9L204.7,22.4z M190.8,19.3c-0.2,1.1-0.6,2.2-1.4,3h9.3V11.1h-7.2l-0.1,2.9C191.4,15.8,191.2,17.6,190.8,19.3L190.8,19.3z    M211.3,24.1c-1.4-0.7-2.6-1.7-3.5-3c-1.7-2.6-1.7-6,0-8.7c0.9-1.3,2.1-2.4,3.5-3c3.2-1.5,6.9-1.5,10.1,0c1.4,0.7,2.6,1.7,3.5,3   c1.7,2.6,1.7,6,0,8.7c-0.9,1.3-2.1,2.3-3.5,3C218.2,25.6,214.5,25.6,211.3,24.1z M219.7,21.7c1-0.5,1.8-1.2,2.4-2.1   c0.6-0.9,0.9-1.9,0.8-3c0-1.1-0.3-2.1-0.8-3c-0.6-0.9-1.4-1.6-2.4-2.1c-2.1-1-4.5-1-6.6,0c-1,0.5-1.8,1.2-2.4,2.1   c-0.6,0.9-0.8,1.9-0.8,3c0,1.1,0.3,2.1,0.8,3c0.6,0.9,1.4,1.6,2.4,2.1C215.2,22.7,217.6,22.7,219.7,21.7z M246.8,25V14.1l-6,9h-1.5   l-6-8.9V25H230V8.5h2.8l7.2,10.9l7.2-10.9h2.8V25L246.8,25z"/>
	<path d="M53.9,8.1c2.9-0.3,5.5,1.8,5.8,4.7v0.9c0,3.4-2.2,5.4-5.9,5.4h-7.1v5.5h-2.9V8.1H53.9z M54.1,16.3c1.4,0.1,2.5-0.9,2.6-2.3   v-0.4c0.1-1.4-0.9-2.7-2.4-2.9h-7.7v5.5L54.1,16.3z M70.8,25c-5.3,0-9.6-3.5-9.6-8.7s4.3-8.7,9.6-8.7c5.3,0,9.6,3.5,9.6,8.7   S76.1,25,70.8,25 M70.8,10.3c-3.3-0.2-6.2,2.2-6.5,5.5v0.4c0,3.4,2.5,5.9,6.5,5.9c3.9,0,6.5-2.5,6.5-5.9S74.8,10.4,70.8,10.3    M92.8,25c-5.5,0-9.6-3.5-9.6-8.7s4.2-8.7,9.6-8.7c2.8-0.1,5.5,0.8,7.7,2.5l-1.6,2.4c-1.7-1.3-3.8-2.1-5.9-2.1   c-4.1,0-6.6,2.5-6.6,5.8s2.5,6,6.6,6c2.2,0,4.3-0.7,6.1-2l1.6,2.4C98.3,24.1,95.6,24.9,92.8,25 M125.9,20.5l-1.8,4h-3.3L128.8,8   h3.2l8.1,16.5h-3.3l-1.8-4L125.9,20.5z M127.2,17.8h6.3l-3.2-6.7L127.2,17.8z"/>
	<path d="M156.2,24.6v-7.2h-10.8v7.2h-3.1V8.1h3.1v6.7h10.8V8.1h3v16.5H156.2z M163.8,24.6V8.1h3.1v7.7l8.3-7.7h3.7l-8.5,7.9   l8.8,8.6h-4.1l-8.3-8.1v8L163.8,24.6z M113.9,14h-7.1v-3.4h11.8V7.9h-14.9v16.5h10.2c3.5,0,6.1-2,6.1-5.3S117.6,14,113.9,14    M114.2,21.7h-7.4v-4.9h7.4c1.8,0,3,1.1,3,2.5C117.2,20.7,116.3,21.8,114.2,21.7"/>
	<path class="st0" d="M0,0h33.1v16.9H0V0z"/>
	<path d="M0,16.1h33.1v16.5H0V16.1z"/>
	<path class="st1" d="M5.7,15.2h21.5v2H5.7V15.2z"/>
	<path d="M117.2,48.3c-1.3,0.2-2.5-0.7-2.7-2c0-0.1,0-0.2,0-0.4v-3.1h0.9v3.1c0,0.9,0.6,1.5,1.7,1.5s1.7-0.6,1.7-1.5v-3.1h1V46   c0,1.3-1.1,2.3-2.4,2.3C117.4,48.3,117.3,48.3,117.2,48.3z M110.3,48.3c-1.6,0.1-2.9-1.1-3-2.7c0,0,0-0.1,0-0.1   c0.1-1.7,1.7-3,3.4-2.8c1.5,0.1,2.7,1.3,2.8,2.8c0,0.8-0.3,1.5-0.9,2C111.9,48,111.2,48.3,110.3,48.3L110.3,48.3z M110.3,43.6   c-1.1,0-1.9,0.8-2,1.8c0,1,0.7,1.9,1.7,2h0.3c1.1,0,2-0.8,2-1.8c0-1-0.7-1.9-1.7-2H110.3z M97.2,48.3c-0.8,0-1.6-0.3-2.2-0.8   c-0.6-0.5-0.9-1.3-0.9-2c0-1.6,1.4-2.8,3-2.8c0.1,0,0.1,0,0.2,0c0.9,0,1.8,0.3,2.5,0.8l-0.5,0.8c-0.6-0.4-1.2-0.6-1.9-0.6h-0.1   c-1-0.1-1.9,0.7-2,1.7c0,0,0,0,0,0v0.2c0,1.1,0.9,1.9,1.9,1.9h0.2c0.5,0,1-0.1,1.5-0.3v-1.6h1v2.1C99,48,98.1,48.3,97.2,48.3   L97.2,48.3z M9.3,48.3c-0.8,0-1.6-0.3-2.2-0.8c-0.6-0.5-0.9-1.3-0.9-2c0.1-1.6,1.4-2.9,3-2.8h0.1c1.6-0.1,3,1.1,3.1,2.7   c0,0,0,0,0,0v0.1c0,1.6-1.3,2.8-2.9,2.8c0,0,0,0,0,0H9.3z M9.3,43.6c-1-0.2-2,0.5-2.2,1.6c-0.2,1,0.5,2,1.6,2.2c0.1,0,0.2,0,0.3,0   h0.3c1,0.2,2-0.5,2.2-1.6c0.2-1-0.5-2-1.6-2.2c-0.1,0-0.2,0-0.3,0H9.3z M45.1,48.3c-0.8,0-1.6-0.3-2.2-0.8c-0.6-0.5-0.9-1.3-0.9-2   c0-1.6,1.4-2.8,3-2.8c0.1,0,0.1,0,0.2,0c0.9,0,1.8,0.2,2.5,0.8l-0.5,0.8c-0.5-0.4-1.2-0.7-1.9-0.6h-0.1c-1-0.1-1.9,0.7-2,1.7   c0,0,0,0,0,0c0,0.1,0,0.1,0,0.2c0,1,0.9,1.9,1.9,1.9h0.2c0.5,0,1-0.1,1.5-0.3v-1.6h0.9v2.1C46.9,48,46,48.2,45.1,48.3L45.1,48.3z    M16.5,48.3c-0.8,0-1.6-0.3-2.2-0.8c-0.6-0.5-0.9-1.3-0.9-2c0-1.6,1.3-2.8,2.9-2.8c0.1,0,0.1,0,0.2,0c0.9,0,1.8,0.3,2.5,0.8   l-0.5,0.8c-0.5-0.4-1.2-0.7-1.9-0.6c-1-0.1-2,0.7-2.1,1.7c0,0.1,0,0.1,0,0.2c0,1.1,0.9,1.9,1.9,1.9c0,0,0,0,0,0h0.2   c0.7,0,1.4-0.2,2-0.6l0.5,0.8C18.3,48,17.4,48.3,16.5,48.3L16.5,48.3z M2.8,48.3c-1,0-1.9-0.2-2.8-0.7l0.4-0.8   c0.7,0.4,1.5,0.6,2.4,0.6c1,0,1.6-0.3,1.6-0.7c0-0.5-0.8-0.6-1.6-0.8c-1.2-0.2-2.6-0.4-2.6-1.6c0-0.9,0.9-1.5,2.4-1.5   c0.9,0,1.7,0.2,2.5,0.5l-0.4,0.8c-0.6-0.3-1.3-0.5-2.1-0.5c-0.9,0-1.4,0.2-1.4,0.6c0,0.4,0.7,0.5,1.5,0.7c1.2,0.2,2.7,0.4,2.7,1.8   C5.4,47.6,4.4,48.2,2.8,48.3L2.8,48.3z M102.1,48.2h-1v-5.4h3.4c0.9-0.1,1.7,0.6,1.8,1.5c0,0,0,0,0,0c0,0.1,0,0.1,0,0.2   c0,0.9-0.7,1.6-1.5,1.6l1.6,2h-1.2l-1.4-2h-1.6L102.1,48.2L102.1,48.2z M102.1,43.7v1.6h2.4c0.6,0,1-0.3,1-0.8   c0-0.4-0.3-0.8-0.7-0.8H102.1L102.1,43.7z M122.3,48.2h-1v-5.4h3.3c1-0.1,1.8,0.6,1.9,1.6c0,0,0,0,0,0c0,0.1,0,0.1,0,0.2   c0,0.9-0.7,1.7-1.6,1.7c0,0,0,0,0,0c-0.1,0-0.2,0-0.3,0h-2.4L122.3,48.2L122.3,48.2z M122.3,43.7L122.3,43.7v1.8h2.4   c0.4,0,0.8-0.3,0.8-0.8v-0.1c0-0.5-0.3-0.9-0.8-0.9H122.3L122.3,43.7z M74.7,48.2h-1.1l2.6-5.3h1l2.6,5.3h-1.1l-0.6-1.4h-2.9   L74.7,48.2L74.7,48.2z M76.7,43.8l-1,2.2h2.1L76.7,43.8z M68.9,48.1h-1v-5.3h3.4c0.9-0.1,1.7,0.6,1.8,1.5c0,0.1,0,0.1,0,0.2   c0,0.9-0.7,1.6-1.5,1.6l1.6,2H72l-1.5-2h-1.6L68.9,48.1L68.9,48.1z M68.9,43.7L68.9,43.7v1.6h2.4c0.6,0,1-0.3,1-0.8   c0-0.4-0.3-0.8-0.7-0.8c0,0,0,0,0,0L68.9,43.7L68.9,43.7z M56,48.1h-1v-5.3h1l3.5,4l-0.1-2.6v-1.4h1v5.3h-1l-3.5-4L56,48.1L56,48.1   z M90.8,48.1h-5v-5.3h4.8v0.9h-3.9V45h3v0.9h-3v1.4h4L90.8,48.1L90.8,48.1z M85,48.1h-4.5v-5.3h1v4.4H85L85,48.1L85,48.1z    M66.9,48.1h-5v-5.3h4.9v0.9h-3.9V45h3v0.9h-3v1.4h4L66.9,48.1L66.9,48.1z M53.9,48.1h-5v-5.3h4.9v0.9h-3.9V45h3v0.9h-3v1.4h4   L53.9,48.1L53.9,48.1z M38.9,48.1h-5v-5.3h4.8v0.9h-3.9V45h3v0.9h-3v1.4h4L38.9,48.1L38.9,48.1z M30,48.1v-4.4h-2.2v-0.9h5.4v0.9   H31v4.4H30z M27.3,48.1h-5v-5.3h5v0.9h-3.9V45h3v0.9h-3v1.4h4v0.9L27.3,48.1z M19.9,48.1v-5.3h1v5.3H19.9z"/>
</g>
</svg>