<?xml version="1.0" encoding="UTF-8"?>
<!-- Generator: Adobe Illustrator 25.3.1, SVG Export Plug-In . SVG Version: 6.00 Build 0)  -->
<svg version="1.1" id="Слой_1" xmlns="http://www.w3.org/2000/svg" xmlns:xlink="http://www.w3.org/1999/xlink" x="0px" y="0px" width="250px" height="80px" viewBox="0 0 250 80" style="enable-background:new 0 0 250 80;" xml:space="preserve">
<style type="text/css">
	.st0{fill:#1F5E2F;}
	.st1{fill:#FECC00;}
</style>
<g>
	<path class="st0" d="M55.5,40c-0.8-6.2-3.4-11.5-7.8-15.9c-4.9-4.9-10.7-7.5-17.6-8c-0.7-0.1-1.5-0.1-2.2-0.1c0-2.3,0-4.6,0-6.9   c-5.3,0-10.5,0-15.8,0c0,0.1,0,0.3,0,0.4c0,3.7,0,7.5,0,11.2c0,0.4-0.1,0.7-0.4,0.9c-8.4,6.7-11.9,15.4-10.4,26   C2.1,53.8,5,59,9.5,63.2c7.2,6.7,15.7,9,25.2,6.8C48.3,66.9,57.3,53.8,55.5,40z M20.6,46.6c0-0.2,0-0.5,0-0.7c0.7,0,1.2,0,1.8,0   c1,0,1.9,0,2.9,0c1.5,0.1,2,0.4,2.9,1.8c0.6-1.5,1.9-1.8,3.3-1.7c0.4,0,0.9,0,1.3,0c0.8,0,1.5,0.4,2.1,1c0-0.3-0.1-0.5-0.1-0.8   c5.3,0,10.6,0,15.9,0c0,0.2,0,0.3,0,0.5c0,0.4-0.2,0.5-0.6,0.5c-1.9,0-3.7,0-5.6,0c-0.2,0-0.4,0-0.6,0c0,0.3,0,0.5,0,0.7   c0,3.8,0,7.6,0,11.5c0,0.4-0.1,0.7-0.4,0.9c-0.5,0.4-1,0.8-1.6,1.3c0-0.3,0-0.5,0-0.6c0-1.8,0-3.6,0-5.4c0-0.8-0.2-1.5-1.1-1.9   c-0.1,0-0.2-0.3-0.1-0.4c0.4-1.8,0.7-3.6,1.1-5.4c0-0.2,0-0.3,0.1-0.5c-0.8,0-1.5,0-2.3,0c-0.1,2.3-0.3,4.5-0.4,6.8   c-0.4,0-0.4,0-0.4-0.4c-0.1-0.9-0.1-1.8-0.1-2.6c-0.1-1.3-0.1-2.5-0.2-3.8c-0.7,0-1.4,0-2.2,0c0.4,2.1,0.8,4.2,1.1,6.3   c-1.1,0.4-1.3,1.2-1.3,2.3c0,2.8,0,5.6,0,8.3c0,0.5-0.1,0.7-0.6,0.8c-0.3,0.1-0.5,0.2-0.9,0.3c0-3.3,0-6.6,0-9.8   c-0.8,0-1.5,0-2.2,0c0,3.4,0,6.9,0,10.3c-0.4,0.1-0.7,0.1-1,0.2c0-5.6,0-11.2,0-16.8c0.3,0,0.6,0,1,0c0,1.7,0,3.4,0,5.1   c0.8,0,1.5,0,2.2,0c0-0.1,0-0.2,0-0.2c0-1.6,0-3.3,0-4.9c0-1.3-0.5-1.8-1.7-1.9c-0.8-0.1-1.5,0-2.3,0.1c-0.8,0.1-1.2,0.5-1.3,1.3   c-0.1,0.3-0.1,0.7-0.1,1c0,5.3,0,10.6,0,15.9c0,0.2,0,0.4,0,0.6c-0.4,0-0.7,0-1,0c0-1.8,0-3.5,0-5.3c-0.7,1.1-1.8,1.3-3,1.4   c0,1.2,0,2.4,0,3.6c-0.1,0-0.1,0-0.2,0c-1.1-0.2-0.9,0-0.9-1c0-1.2,0-2.5,0-3.8c0.5,0,1,0,1.4,0c1.4-0.1,1.9-0.6,1.9-2   c0-2,0-3.9,0-5.9c0-1.4,0-2.8,0-4.2c0-1.2-0.5-1.8-1.7-1.9c-1.3-0.1-2.5,0-3.8,0c0,6,0,12,0,18c-1-0.1-1.1-0.2-1.1-1   C20.6,58.1,20.6,52.3,20.6,46.6z M46.5,49.9c0-0.3,0-0.6,0-0.9c1.2,0,2.4,0,3.7,0c-0.1,0.5-0.3,1-0.4,1.5   C48.8,49.7,47.6,50,46.5,49.9z M47.7,53.7c0,1.3-0.3,2.2-1.2,3c0-1.7,0-3.4,0-5.1c0.4,0,0.7,0,1.2,0C47.7,52.4,47.7,53.1,47.7,53.7   z M39.5,56.1c0,2,0,4.1,0,6.1c0,1,0,1-1.1,1.4c0-2.8,0-5.5,0-8.2c0.1,0,0.1-0.1,0.1-0.1C39.4,55.2,39.5,55.2,39.5,56.1z M24,59   c0-0.2,0-0.4,0-0.6c0-2.9,0-5.9,0-8.8c0-0.9,0-1,1-0.8c0,3.4,0,6.8,0,10.2C24.7,59,24.4,59,24,59z M17.4,44.5   c1.3,1.3,1.9,2.9,2,4.7c0,1.5,0,3.1,0,4.6c-0.6-1.4-1.7-2.3-2.7-3.3c-1.7-1.7-3.5-3.4-5.2-5.1c-1.5-1.5-2.4-3.3-2.6-5.4   c-0.2-1.7-0.1-3.5-0.2-5.3c0.1,0,0.1,0,0.2,0c1,2.6,2.9,4.3,4.8,6.1C14.9,42.1,16.2,43.3,17.4,44.5z M19.4,63.2   c-1-2.3-3-3.7-4.7-5.4c-1.1-1.2-2.4-2.3-3.5-3.5c-1.3-1.4-2.1-3.2-2.4-5.1c-0.2-1.6-0.1-3.1-0.1-4.7c0,0,0,0,0.1-0.1   c0.4,0.6,0.8,1.3,1.3,1.8c1.3,1.4,2.6,2.8,4,4.2c1.2,1.2,2.4,2.3,3.5,3.5c1.1,1.1,1.7,2.5,1.8,4.1C19.5,59.8,19.4,61.5,19.4,63.2z    M37.9,67.2c-12.3,4.9-26.4-0.4-32.4-12.1C-0.5,43.4,3.5,29.9,13,23c0,0.8,0,1.5,0,2.2c0,0.1-0.2,0.3-0.3,0.4   C8.7,29,6.1,33.3,5,38.4c-1.6,7.8,0.2,14.8,5.5,20.8c3.7,4.3,8.5,6.9,14.1,7.7c7.5,1.1,14.2-0.9,19.9-6c4.3-3.9,6.9-8.8,7.5-14.6   c0.8-7.4-1.3-13.9-6.5-19.4c-3.9-4.1-8.7-6.5-14.4-7.2c-1.2-0.2-2.5-0.1-3.7-0.2c-0.1,0-0.2,0-0.4,0c0-0.6,0-1.2,0-1.7   c9.4-0.8,21.7,5,25.7,17.9C56.9,48.6,50.4,62.2,37.9,67.2z"/>
	<path class="st0" d="M41.8,53.1c0.3,0.3,0.5,0.5,0.9,0.8c0-2,0-4,0-5.9c-0.3,1.6-0.6,3.1-0.9,4.7C41.7,52.9,41.7,53,41.8,53.1z"/>
</g>
<path class="st0" d="M226.4,51.9c-1.2,0-2.4,0-3.6,0c0-4.2,0-8.4,0-12.6c1.2,0,2.4,0,3.6,0c0,0.2,0,0.4,0,0.5c0,1.2,0,2.5,0,3.7  c0,0.3,0.1,0.5,0.4,0.5c1.1,0,2.1,0,3.2,0c0.4,0,0.4-0.1,0.4-0.5c0-1.4,0-2.8,0-4.2c1.2,0,2.4,0,3.7,0c0,4.2,0,8.4,0,12.6  c-1.2,0-2.4,0-3.6,0c0-0.2,0-0.4,0-0.5c0-1.4,0-2.9,0-4.3c0-0.4-0.1-0.5-0.5-0.5c-1,0-2.1,0-3.1,0c-0.4,0-0.5,0.1-0.5,0.5  C226.5,48.7,226.4,50.3,226.4,51.9z"/>
<path class="st0" d="M248.7,39.3c-1,1.1-1.3,2.4-1.8,3.7c-0.3,1-0.8,1.8-2,2c1.6,0.4,2,1.8,2.5,3c0.5,1.3,1,2.5,1.5,3.8  c-0.7,0-1.5,0-2.3,0c-1.4,0-1.7-0.2-2.2-1.5c-0.3-0.8-0.5-1.6-0.8-2.4c-0.5-1.3-0.8-1.5-2.2-1.5c-0.2,0-0.4,0-0.7,0  c0,1.8,0,3.5,0,5.3c-1.2,0-2.4,0-3.7,0c0-4.2,0-8.4,0-12.6c1.2,0,2.4,0,3.6,0c0,1.6,0,3.2,0,4.8c1.5,0.4,2.5-0.1,3-1.5  c0.2-0.6,0.3-1.2,0.5-1.8c0.4-1.1,0.9-1.5,2.1-1.5c0.7,0,1.4,0,2.1,0C248.6,39.3,248.6,39.3,248.7,39.3z"/>
<path class="st0" d="M187.1,45.2c0.2,0.1,0.3,0.1,0.4,0.2c2.1,0.6,3,2.6,2,4.5c-0.5,1-1.3,1.6-2.4,1.9c-1.8,0.5-3.7,0.5-5.5,0  c-1.7-0.5-2.6-1.7-3-3.4c0.9-0.2,1.7-0.3,2.5-0.4c0,0.1,0.1,0.1,0.1,0.1c0.5,2,2.2,2.3,4.2,1.9c0.9-0.2,1.4-0.9,1.4-1.8  c0-0.9-0.5-1.5-1.5-1.6c-0.8-0.1-1.5-0.1-2.4-0.2c0-0.5,0-1.1,0-1.6c0-0.1,0.2-0.2,0.4-0.2c0.6-0.1,1.3,0,1.9-0.1  c0.9-0.2,1.4-0.7,1.4-1.5c0-0.8-0.4-1.4-1.3-1.6c-0.7-0.1-1.5-0.1-2.2,0c-1,0.2-1.6,0.9-1.8,1.9c-0.8-0.2-1.6-0.3-2.5-0.5  c0.2-1,0.7-1.7,1.4-2.3c1.5-1.2,3.2-1.4,5-1.3c1.1,0.1,2.1,0.3,3.1,1c1.2,0.8,1.6,2.1,1.2,3.4C189.1,44.5,188.3,45,187.1,45.2z"/>
<path class="st0" d="M136,41.4c-1.1,0-2.2,0-3.2,0c0,0.2-0.1,0.4-0.1,0.6c-0.1,1.8-0.1,3.5-0.4,5.3c-0.1,1-0.4,2-0.8,2.9  c-0.7,1.4-1.9,1.9-3.4,1.9c-0.2,0-0.3-0.1-0.5-0.1c0-0.7,0-1.4,0-2.1c1.7-0.4,2.3-1.2,2.5-3.2c0.1-2.3,0.2-4.5,0.3-6.8  c0-0.1,0-0.3,0-0.5c2.8,0,5.6,0,8.4,0c0,4.2,0,8.4,0,12.6c-0.9,0-1.8,0-2.8,0C136,48.4,136,44.9,136,41.4z"/>
<path class="st0" d="M98.1,47.3c0.9,0.1,1.7,0.2,2.6,0.3c-0.2,2.5-2.1,4.4-4.5,4.6c-3.5,0.2-5.9-1.8-6.3-5.3c-0.2-1.9,0-3.7,1-5.3  c1.5-2.4,4.9-3.3,7.4-1.9c1.5,0.8,2.2,2.2,2.5,3.9c-0.8,0.1-1.6,0.2-2.4,0.3c-0.1,0-0.2-0.2-0.3-0.3c-0.1-0.4-0.2-0.8-0.4-1.2  c-0.8-1.6-2.9-1.8-3.9-0.3c-0.4,0.6-0.6,1.3-0.7,2c-0.2,1.4-0.2,2.8,0.2,4.2c0.6,1.8,2.5,2.5,3.8,1.3c0.6-0.5,0.8-1.2,1-1.9  C98.1,47.6,98.1,47.5,98.1,47.3z"/>
<path class="st0" d="M113.1,43.6c-0.9,0.1-1.7,0.2-2.5,0.3c-0.2-0.6-0.3-1.1-0.5-1.5c-0.8-1.6-2.9-1.7-4-0.3  c-0.5,0.7-0.7,1.5-0.8,2.4c-0.1,1.3-0.1,2.6,0.3,3.8c0.1,0.4,0.4,0.9,0.7,1.2c1.1,1.1,2.9,0.9,3.6-0.5c0.3-0.5,0.4-1,0.6-1.6  c0.8,0.1,1.6,0.2,2.5,0.3c-0.2,2.5-2.1,4.4-4.6,4.6c-3.4,0.2-5.8-1.7-6.2-5.1c-0.2-1.9-0.1-3.7,0.9-5.3c1.5-2.5,5-3.4,7.5-2  C112.1,40.5,112.7,41.9,113.1,43.6z"/>
<path class="st0" d="M152.9,51.9c1.4-2.1,2.7-4.1,4-6.1c0.3-0.4,0.3-0.6,0-1c-1.1-1.7-2.2-3.4-3.2-5c-0.1-0.1-0.2-0.3-0.3-0.5  c1.1,0,2.1,0,3.2,0c0.1,0,0.3,0.2,0.4,0.3c0.7,1.2,1.4,2.3,2.1,3.6c0.1-0.2,0.2-0.3,0.3-0.5c0.6-1,1.3-2.1,1.9-3.1  c0.2-0.3,0.3-0.4,0.6-0.4c0.7,0,1.4,0,2.2,0c-0.1,0.2-0.2,0.4-0.3,0.5c-1,1.6-2.1,3.2-3.1,4.8c-0.2,0.3-0.2,0.5,0,0.8  c1.3,2,2.6,4,3.8,6c0.1,0.2,0.2,0.3,0.3,0.5c-1.1,0-2.1,0-3.2,0c-0.1,0-0.3-0.2-0.3-0.3c-0.8-1.3-1.6-2.7-2.4-4  c-0.1-0.1-0.2-0.2-0.3-0.4c-0.1,0.1-0.2,0.3-0.3,0.4c-0.8,1.3-1.7,2.7-2.5,4c-0.2,0.3-0.4,0.4-0.7,0.4  C154.4,51.9,153.7,51.9,152.9,51.9z"/>
<path class="st1" d="M34.2,38.4c0.1,0.5,0.3,0.9,0.3,1.4c0.1,1.3-0.6,2.4-1.8,2.9c-1.1,0.5-2.5,0.2-3.3-0.7  c-0.8-0.9-1.1-2.3-0.5-3.4c0.1-0.3,0.1-0.4,0-0.7c-0.1-0.3-0.1-0.7,0-1c0.1-0.3,0.1-0.4,0-0.7C28.4,35,28.5,34,29.2,33  c0.8-1,1.8-1.3,2.9-1c1.2,0.2,2,1,2.2,2.2c0.1,0.7,0,1.5-0.1,2.3c0.1,0,0.3,0,0.5,0c4.3,0,8.5,0,12.8,0c0.8,0,1,0.2,1,1  c0,0.6-0.2,0.9-0.9,0.9c-0.5,0-1,0-1.5,0c-0.2,0-0.5,0.1-0.4,0.4c0,0.1,0.2,0.3,0.4,0.3c0.2,0.1,0.6-0.1,0.6,0.4  c0,0.4-0.1,0.6-0.5,0.5c-0.4,0-0.5,0.1-0.5,0.5c0,0.4,0.2,0.5,0.5,0.4c0.4,0,0.6,0.1,0.5,0.5c0,0.2,0,0.4,0,0.5  c0.1,0.5-0.2,0.6-0.6,0.6c-0.6,0-0.3-0.5-0.5-0.8c-0.3,0-0.7,0-1.1,0c-0.1,0-0.3,0.3-0.3,0.4c0,0.5-0.3,0.3-0.6,0.4  c-0.3,0-0.4-0.1-0.4-0.4c0-0.2,0-0.3,0-0.5c-0.1-0.5,0-0.9,0.7-0.8c0.4,0.1,0.3-0.3,0.3-0.5c0-0.3-0.1-0.4-0.4-0.4  c-0.2,0-0.6,0.2-0.6-0.3c0-0.4,0-0.6,0.5-0.6c0.3,0,0.6,0,0.5-0.4c0-0.1-0.2-0.2-0.3-0.3c0,0-0.1,0-0.1,0c-3.2,0-6.5,0-9.7,0  C34.3,38.3,34.2,38.3,34.2,38.4z M30,39.7c0,0.8,0.3,1.3,0.9,1.6c0.6,0.3,1.1,0.2,1.6-0.2c0.5-0.4,0.7-0.9,0.5-1.5  c-0.1-0.4-0.2-0.8-0.4-1.2c-0.3-0.6-0.3-1.3,0-1.9c0.2-0.4,0.3-0.9,0.4-1.3c0.2-0.6-0.2-1.3-0.7-1.6c-0.6-0.3-1.2-0.3-1.7,0.1  c-0.5,0.4-0.7,1.1-0.5,1.7c0.1,0.2,0.2,0.4,0.3,0.6c0.2,0.3,0.2,0.5,0,0.8c-0.3,0.4-0.3,0.9,0,1.3c0.2,0.3,0.1,0.5,0,0.8  C30.2,39.1,30.1,39.5,30,39.7z"/>
<path class="st1" d="M20.4,24.9c0-0.2,0-0.3,0-0.4c0-4.3,0-8.6,0-13c0-0.4,0.1-0.6,0.5-0.5c0.4,0,0.3,0.3,0.3,0.6c0,2.8,0,5.5,0,8.3  c0,0.2,0,0.4,0,0.7c0.5-0.3,0.8-0.6,0.8-1.2c0-2.6,0-5.2,0-7.8c0-0.2-0.1-0.5,0.3-0.5c0.4,0,0.5,0.1,0.5,0.5c0,2.3,0,4.6,0,6.8  c0,0.2,0,0.3,0,0.6c0.5-0.4,0.8-0.7,0.8-1.3c0-2.1,0-4.1,0-6.2c0-0.3,0-0.5,0.4-0.5c0.4,0,0.4,0.2,0.4,0.5c0,1.7,0,3.4,0,5.1  c0,0.2,0,0.5,0,0.8c0.5-0.3,0.8-0.5,0.8-1.1c0-1.6,0-3.2,0-4.8c0-0.3,0-0.5,0.4-0.5c0.3,0,0.4,0.1,0.4,0.4c0,0.7,0,1.5,0,2.2  c0,1.8,0,3.6,0,5.4c0,0.2-0.1,0.5-0.2,0.7c-1.7,1.7-3.5,3.4-5.2,5.1C20.6,24.8,20.6,24.8,20.4,24.9z"/>
<path class="st1" d="M15.6,17.3c0-0.3,0-0.4,0-0.6c0-1.7,0-3.5,0-5.2c0-0.3,0-0.5,0.5-0.5c0.4,0,0.4,0.2,0.4,0.5c0,1.4,0,2.9,0,4.3  c0,0.7,0,1.3,0,2c0,0.6,0.3,0.8,0.7,1.2c0-0.3,0-0.5,0-0.7c0-2.2,0-4.5,0-6.7c0-0.2-0.1-0.5,0.3-0.5c0.4,0,0.5,0.1,0.5,0.5  c0,1.8,0,3.7,0,5.5c0,0.7,0,1.5,0,2.2c0,0.6,0.2,1,0.8,1.3c0-0.3,0-0.5,0-0.7c0-2.8,0-5.5,0-8.3c0-0.2-0.1-0.5,0.3-0.6  c0.4,0,0.5,0.1,0.5,0.5c0,1.9,0,3.8,0,5.7c0,2.3,0,4.7,0,7c0,0.2,0,0.4,0,0.7c-0.2-0.2-0.3-0.3-0.5-0.4c-1.6-1.6-3.3-3.2-4.9-4.8  C14.1,19.5,14,19.2,14,19c0-2.5,0-5,0-7.5c0-0.3,0-0.5,0.4-0.5c0.4,0,0.4,0.2,0.4,0.5c0,1.5,0,3.1,0,4.6  C14.8,16.7,15.1,17,15.6,17.3z"/>
<path class="st1" d="M26.1,34.6c0,1.2,0,2.3,0,3.4c0,0.1-0.1,0.3-0.2,0.4c-1.8,1.8-3.6,3.5-5.4,5.4c0-0.2,0-0.3,0-0.4c0-1,0-2,0-3  c0-0.2,0.1-0.4,0.2-0.6c1.7-1.7,3.5-3.4,5.3-5.2C26,34.7,26,34.7,26.1,34.6z"/>
<path class="st1" d="M19.6,43.8c-0.7-0.7-1.3-1.3-1.9-1.9c-1.1-1.1-2.3-2.2-3.4-3.4c-0.2-0.2-0.3-0.5-0.3-0.7c0-1.1,0-2.1,0-3.3  c0.6,0.6,1.1,1.1,1.6,1.5c1.2,1.2,2.4,2.4,3.7,3.6c0.3,0.3,0.4,0.6,0.4,1c0,0.9,0,1.7,0,2.6C19.6,43.3,19.6,43.5,19.6,43.8z"/>
<path class="st1" d="M20.4,34.3c0-1.2,0-2.3,0-3.3c0-0.1,0.1-0.3,0.2-0.4c1.8-1.7,3.5-3.5,5.3-5.2c0,0,0.1,0,0.1,0  c0,1.1,0,2.2,0,3.3c0,0.1-0.1,0.3-0.2,0.4c-1.7,1.7-3.4,3.3-5.1,5C20.7,34.1,20.6,34.2,20.4,34.3z"/>
<path class="st1" d="M20.4,39c0-1.2,0-2.3,0-3.4c0-0.1,0.1-0.2,0.2-0.3c1.8-1.7,3.5-3.4,5.3-5.1c0,0,0.1,0,0.2-0.1  c0,1.1,0,2.2,0,3.4c0,0.1-0.1,0.2-0.2,0.3c-1.7,1.7-3.5,3.4-5.2,5.1C20.7,38.8,20.6,38.9,20.4,39z"/>
<path class="st1" d="M20.4,29.6c0-1.2,0-2.2,0-3.3c0-0.1,0.1-0.3,0.2-0.3c1.8-1.7,3.6-3.5,5.3-5.2c0,0,0.1,0,0.1,0  c0,1.1,0,2.2,0,3.3c0,0.1-0.1,0.2-0.2,0.3c-1.7,1.7-3.5,3.4-5.3,5.2C20.6,29.5,20.6,29.5,20.4,29.6z"/>
<path class="st1" d="M19.4,34.3c-0.4-0.5-0.8-0.9-1.2-1.4c-1.3-1.3-2.7-2.6-4-3.9c-0.1-0.1-0.2-0.3-0.3-0.4c0-1.1,0-2.2,0-3.4  c0.6,0.6,1.1,1,1.5,1.5c1.3,1.2,2.5,2.5,3.8,3.7c0.3,0.3,0.4,0.5,0.4,0.9c0,1,0,1.9,0,2.9C19.6,34.2,19.5,34.3,19.4,34.3z"/>
<path class="st1" d="M14,29.9c0.7,0.6,1.2,1.2,1.8,1.7c1.2,1.2,2.4,2.3,3.6,3.5c0.2,0.2,0.3,0.5,0.3,0.8c0,1,0,2,0,3.1  c-0.4-0.4-0.8-0.7-1.1-1.1c-1.4-1.4-2.8-2.8-4.2-4.2C14.1,33.6,14,33.3,14,33C13.9,32,14,31,14,29.9z"/>
<path class="st1" d="M14,20.5c0.5,0.5,0.9,0.9,1.3,1.2c1.4,1.3,2.7,2.7,4.1,4c0.1,0.1,0.3,0.3,0.3,0.4c0,1.1,0,2.2,0,3.3  c-0.2-0.1-0.3-0.2-0.4-0.3c-1.7-1.6-3.3-3.3-5-4.9c-0.2-0.2-0.3-0.5-0.3-0.8C14,22.6,14,21.6,14,20.5z"/>
<path class="st0" d="M201.2,41.7c-1.4-0.1-2.8,0-4.1,0c-0.2,0-0.4,0-0.6,0c0-1.3,0-2.5,0-3.8c1,0,1.9,0,2.8,0c1.6,0,3.3,0,4.9,0  c0.2,0,0.4-0.1,0.4-0.2c0-0.9,0-1.8,0-2.7c-4.1,0-8.1,0-12.2,0c0,5.7,0,11.3,0,17c2.9,0,5.8,0,8.6,0c0.5,0,1-0.1,1.5-0.2  c2.3-0.6,3.8-3,3.4-5.9C205.7,43.5,203.7,41.8,201.2,41.7z M199.8,49c-1.1,0-2.2,0-3.3,0c0-1.5,0-2.9,0-4.4c0.1,0,0.2,0,0.3,0  c1,0,2.1,0,3.1,0c1.3,0,2.2,1,2.2,2.2C202,48.1,201.1,49,199.8,49z"/>
<path class="st0" d="M219.9,47.7c0-1.6,0-3.3,0-4.9c-0.1-1.7-1.1-3-2.8-3.5c-0.5-0.1-1.1-0.2-1.6-0.3c-1.6-0.1-3.1-0.1-4.6,0.5  c-1.4,0.6-2.2,1.7-2.6,3.2c1.2,0.1,2.3,0.2,3.4,0.4c0.2-0.8,0.8-1.4,1.6-1.6c0.4-0.1,0.8-0.1,1.2-0.1c1.1,0.1,1.9,0.4,2,1.8  c0,0.4-0.1,0.5-0.5,0.6c-1.1,0.1-2.3,0.2-3.4,0.3c-1.3,0.2-2.5,0.6-3.5,1.5c-1.9,1.8-1.4,5,1,6.1c0.9,0.4,1.9,0.5,2.9,0.4  c1.4-0.1,2.6-0.7,3.4-1.8c0.1-0.1,0.1-0.1,0.2-0.2c0.1,0.7,0.2,1.3,0.2,1.8c1.2,0,2.4,0,3.4,0C220,50.5,219.9,49.1,219.9,47.7z   M215.9,48.4c-0.6,1.2-2.4,1.7-3.5,1.1c-1-0.5-1.1-1.9-0.1-2.7c0.7-0.6,1.6-0.7,2.4-0.8c0.5-0.1,1.1-0.1,1.6-0.1  C216.3,46.8,216.3,47.6,215.9,48.4z"/>
<path class="st0" d="M70.5,35c-2.6-0.2-5.2,0-7.9,0c0,5.6,0,11.2,0,16.9c1,0,2,0,3,0c0-0.1,0-0.1,0-0.1c0-2,0-4,0-5.9  c0-0.5,0.1-0.6,0.6-0.6c1.4,0,2.9,0.1,4.3-0.1c3-0.4,4.6-2.7,4.5-5.4C75,37.2,73.2,35.2,70.5,35z M69.4,42.8c-1.2,0.1-2.4,0-3.7,0  c0-1.8,0-3.6,0-5.5c1.4,0.1,2.7,0,4.1,0.2c1.5,0.2,2.3,1.3,2.2,2.6C71.9,41.6,70.9,42.7,69.4,42.8z"/>
<path class="st0" d="M123.6,48.3c-0.3,0.6-0.7,1.1-1.3,1.4c-1.1,0.6-2.2,0.6-3.3-0.1c-1.2-0.8-1.5-2-1.5-3.4c3,0,6,0,9.1,0  c-0.1-0.9-0.1-1.8-0.3-2.6c-0.6-2.4-2-4-4.5-4.4c-2.5-0.5-4.7,0.3-6.2,2.4c-1.1,1.5-1.3,3.2-1.1,5c0.2,2.6,1.8,4.6,4.3,5.3  c1.4,0.4,2.8,0.4,4.2-0.1c1.7-0.6,2.9-1.7,3.4-3.5c-0.8-0.1-1.6-0.2-2.5-0.3C123.8,48,123.6,48.1,123.6,48.3z M120.6,41  c1.7,0,2.9,1.4,2.8,3.3c-1.9,0-3.8,0-5.7,0C117.5,42.6,118.9,41,120.6,41z"/>
<path class="st0" d="M177.2,44.6c-0.3-3.1-2.3-5.2-5.4-5.5c-2.8-0.3-5.2,1.1-6.2,3.8c-0.5,1.3-0.6,2.7-0.4,4.1  c0.5,3.2,2.8,5.2,5.9,5.2c2.9,0,4.9-1.5,5.8-4.2C177.3,46.8,177.3,45.7,177.2,44.6z M173.6,48.5c-0.4,1-1.2,1.6-2.3,1.6  c-1.2,0-2-0.5-2.4-1.6c-0.8-2-0.8-4,0-5.9c0.4-1,1.3-1.5,2.4-1.5c1.1,0,1.9,0.6,2.4,1.6c0.4,0.9,0.6,1.5,0.6,3  C174.1,47.1,173.9,47.6,173.6,48.5z"/>
<path class="st0" d="M82.7,39.1c-2.6-0.2-5,0.8-6.1,3.4c-0.6,1.3-0.8,2.7-0.6,4.1c0.4,3.5,2.8,5.7,6,5.6c2.8,0,5-1.5,5.7-4.2  c0.3-1,0.4-2,0.3-3C87.9,41.9,86.1,39.4,82.7,39.1z M84.5,48.4c-0.4,1.1-1.2,1.7-2.4,1.7c-1.1,0-2.1-0.6-2.4-1.7  c-0.3-0.9-0.8-3.1-0.1-5.4c0.4-1.2,1.4-1.9,2.5-1.9c1.1,0,2.1,0.7,2.5,1.9C85.2,44.8,85.2,46.6,84.5,48.4z"/>
<path class="st0" d="M149,43.9c-1.2-0.1-2.4-0.1-3.6-0.1c-0.2,0-0.3,0-0.6,0c0-1.5,0-3,0-4.5c-1,0-1.9,0-2.8,0c0,4.2,0,8.4,0,12.6  c0.1,0,0.1,0,0.2,0c2.1,0,4.3,0,6.4,0c2.3-0.1,3.6-1.2,3.9-3.4C152.8,46.1,151.8,44.2,149,43.9z M148,49.8c-1,0.1-2,0-3.1,0  c0-1.3,0-2.6,0-4c1.1,0.1,2.2,0.1,3.3,0.3c0.9,0.2,1.3,0.9,1.3,1.8C149.4,48.9,148.8,49.7,148,49.8z"/>
</svg>