<?xml version="1.0" encoding="UTF-8"?>
<!-- Generator: Adobe Illustrator 24.0.1, SVG Export Plug-In . SVG Version: 6.00 Build 0)  -->
<svg version="1.1" id="Слой_1" xmlns="http://www.w3.org/2000/svg" xmlns:xlink="http://www.w3.org/1999/xlink" x="0px" y="0px" width="250px" height="79px" viewBox="0 0 250 79" style="enable-background:new 0 0 250 79;" xml:space="preserve">
<style type="text/css">
	.st0{fill-rule:evenodd;clip-rule:evenodd;fill:#2C2E35;}
	.st1{fill:#FFCC00;}
</style>
<g>
	<path class="st0" d="M29,55.2L33,40l24.2,6.4l-4,15.1L29,55.2z M6.3,38.1L0.7,23.5l23.4-9L29.7,29L6.3,38.1z M52.5,14.9L38.9,36   L52,44.5l13.6-21.1L52.5,14.9z M49,19.3L33.2-0.1L21,9.7l15.8,19.5L49,19.3z M11.7,36.6l1.4,25l15.6-0.9l-1.4-25L11.7,36.6z"/>
	<path class="st0" d="M79,16.4h18.3c3.6,0,6.3,0.2,8.1,0.4c1.8,0.3,3.4,0.9,4.8,1.9c1.4,1,2.6,2.2,3.5,3.8c0.9,1.6,1.4,3.4,1.4,5.4   c0,2.1-0.6,4.1-1.7,5.9c-1.1,1.8-2.7,3.1-4.7,4c2.8,0.8,4.9,2.2,6.4,4.2c1.5,2,2.2,4.3,2.2,6.9c0,2.1-0.5,4.1-1.4,6.1   c-1,2-2.3,3.5-4,4.7c-1.7,1.2-3.7,1.9-6.2,2.2c-1.5,0.2-5.3,0.3-11.2,0.3H79L79,16.4L79,16.4z M88.3,24v10.5h6.1   c3.6,0,5.8-0.1,6.7-0.2c1.6-0.2,2.8-0.7,3.7-1.6c0.9-0.9,1.4-2.1,1.4-3.6c0-1.4-0.4-2.5-1.2-3.4c-0.8-0.9-1.9-1.4-3.5-1.6   c-0.9-0.1-3.5-0.2-7.9-0.2H88.3z M88.3,42.2v12.3h8.6c3.3,0,5.4-0.1,6.3-0.3c1.4-0.3,2.5-0.9,3.4-1.8c0.9-1,1.3-2.3,1.3-3.9   c0-1.4-0.3-2.5-1-3.5c-0.7-1-1.6-1.7-2.9-2.1c-1.3-0.4-4-0.7-8.2-0.7L88.3,42.2L88.3,42.2z M125.4,16.4h34.2v7.7h-24.9v10.6H147   c3.4,0,6.2,0.4,8.5,1.2c2.3,0.8,4.2,2.4,5.8,4.6c1.6,2.2,2.4,4.9,2.4,7.9c0,3.1-0.8,5.7-2.4,8c-1.6,2.2-3.4,3.7-5.5,4.5   c-2,0.8-5,1.2-8.8,1.2h-21.6V16.4z M134.7,54.5h9c2.9,0,4.9-0.1,6.1-0.4s2.2-0.9,3.1-1.9c0.9-1,1.3-2.2,1.3-3.6   c0-2.1-0.8-3.6-2.3-4.6c-1.5-1-4.1-1.4-7.7-1.4h-9.4V54.5z M171.2,62.2V16.4H186c5.6,0,9.3,0.2,11,0.7c2.6,0.7,4.8,2.2,6.6,4.5   c1.8,2.3,2.6,5.3,2.6,8.9c0,2.8-0.5,5.2-1.5,7.1c-1,1.9-2.3,3.4-3.9,4.5c-1.6,1.1-3.2,1.8-4.8,2.2c-2.2,0.4-5.4,0.7-9.6,0.7h-6   v17.3L171.2,62.2L171.2,62.2z M180.4,24.2v13h5c3.6,0,6.1-0.3,7.3-0.7c1.2-0.5,2.2-1.2,2.9-2.3c0.7-1,1.1-2.2,1.1-3.6   c0-1.7-0.5-3.1-1.5-4.1c-1-1.1-2.2-1.8-3.7-2c-1.1-0.2-3.3-0.3-6.6-0.3H180.4z M213.8,62.2V16.4h14.8c5.6,0,9.3,0.2,11,0.7   c2.6,0.7,4.8,2.2,6.6,4.5c1.8,2.3,2.6,5.3,2.6,8.9c0,2.8-0.5,5.2-1.5,7.1c-1,1.9-2.3,3.4-3.9,4.5c-1.6,1.1-3.2,1.8-4.8,2.2   c-2.2,0.4-5.4,0.7-9.6,0.7h-6v17.3L213.8,62.2L213.8,62.2z M223.1,24.2v13h5c3.6,0,6.1-0.3,7.3-0.7c1.2-0.5,2.2-1.2,2.9-2.3   c0.7-1,1.1-2.2,1.1-3.6c0-1.7-0.5-3.1-1.5-4.1s-2.2-1.8-3.7-2c-1.1-0.2-3.3-0.3-6.6-0.3H223.1z"/>
	<path class="st1" d="M250.7,72.9H11.4v5.2h239.3V72.9z"/>
</g>
</svg>